# xmcd
#
# Track frame offsets: 
#        150
#        20804
#        41026
#        57070
#        70653
#        89997
#        111976
#        127494
#        142206
#        158848
#        177189
#        192455
#
# Disc length: 2885 seconds
#
# Revision: 1
# Processed by: cddbd v1.5.2PL0 Copyright (c) Steve Scherf et al.
# Submitted via: ExactAudioCopyFreeDBPlugin 1.0
#
DISCID=bf0b430c
DTITLE=B.o.B - The Adventures Of Bobby Ray
DYEAR=2010
DGENRE=Hip-Hop
TTITLE0=Don't Let Me Fall
TTITLE1=Nothin' On You Feat. Bruno Mars
TTITLE2=Past My Shades Feat. Lupe Fiasco
TTITLE3=Airplanes Feat. Hayley Williams Of Paramore
TTITLE4=Bet I Feat. T.I. and Playboy Tre
TTITLE5=Ghost In The Machine
TTITLE6=The Kids Feat. Janelle Monáe
TTITLE7=Magic Feat. Rivers Cuomo
TTITLE8=Fame
TTITLE9=Lovelier Than You
TTITLE10=5th Dimension Feat. Ricco Barrino
TTITLE11=Airplanes, Part II Feat. Eminem and Hayley Williams Of Paramore
EXTD=
EXTT0=
EXTT1=
EXTT2=
EXTT3=
EXTT4=
EXTT5=
EXTT6=
EXTT7=
EXTT8=
EXTT9=
EXTT10=
EXTT11=
PLAYORDER=
